<svg width="23" height="19" viewBox="0 0 23 19" fill="none" xmlns="http://www.w3.org/2000/svg">
<path fill-rule="evenodd" clip-rule="evenodd" d="M10.2156 2.375C6.16184 2.375 2.875 5.08963 2.875 8.43897C2.875 11.7877 6.16113 14.5029 10.2156 14.5029C11.9092 14.5051 13.5511 14.0213 14.8609 13.1343L18.8715 16.4475C19.0091 16.5612 19.1958 16.6252 19.3905 16.6252C19.5852 16.6253 19.772 16.5615 19.9097 16.4478C20.0475 16.3341 20.1249 16.1798 20.1249 16.019C20.125 15.8581 20.0477 15.7039 19.9101 15.5901L15.8995 12.277C16.9733 11.1948 17.5589 9.83823 17.5562 8.43897C17.5555 5.09022 14.2686 2.375 10.2156 2.375ZM4.34341 8.43897C4.34341 7.15242 4.96208 5.91857 6.06333 5.00884C7.16458 4.09911 8.65819 3.58803 10.2156 3.58803C11.773 3.58803 13.2666 4.09911 14.3679 5.00884C15.4691 5.91857 16.0878 7.15242 16.0878 8.43897C16.0878 9.72552 15.4691 10.9594 14.3679 11.8691C13.2666 12.7788 11.773 13.2899 10.2156 13.2899C8.65819 13.2899 7.16458 12.7788 6.06333 11.8691C4.96208 10.9594 4.34341 9.72552 4.34341 8.43897Z" fill="#4F6F52"/>
</svg>
